<svg id="logo" xmlns="http://www.w3.org/2000/svg" viewBox="0 0 24 24"><defs><style>.cls-1{fill:#6b7076;}.cls-2{fill:#4a4d50;}.cls-3{fill:#2e3032;}.cls-4{fill:#fff;}</style></defs><title>cplus</title><g id="Groupe_7545" data-name="Groupe 7545"><path id="Tracé_10199" data-name="Tracé 10199" class="cls-1" d="M19.17,8.72a1.29,1.29,0,0,0-.69-1.22L12.76,4.2a1.42,1.42,0,0,0-1.52,0c-.76.45-4.56,2.62-5.69,3.28a1.32,1.32,0,0,0-.7,1.22v6.63a1.51,1.51,0,0,0,.17.7,1.39,1.39,0,0,0,.53.52c1.13.66,4.93,2.83,5.69,3.28a1.42,1.42,0,0,0,1.52,0l5.72-3.3a1.39,1.39,0,0,0,.53-.52,1.41,1.41,0,0,0,.16-.7V8.72"/><path id="Tracé_10200" data-name="Tracé 10200" class="cls-2" d="M12,12l-7,4a1.39,1.39,0,0,0,.53.52c1.13.66,4.93,2.83,5.69,3.28a1.42,1.42,0,0,0,1.52,0l5.72-3.3a1.39,1.39,0,0,0,.53-.52l-7-4"/><path id="Tracé_10201" data-name="Tracé 10201" class="cls-2" d="M10,13.21a2.37,2.37,0,0,0,4.12,0L12,12,10,13.21"/><path id="Tracé_10202" data-name="Tracé 10202" class="cls-3" d="M19.17,8.72A1.39,1.39,0,0,0,19,8l-7,4,7,4a1.41,1.41,0,0,0,.16-.7V8.72"/><path id="Tracé_10203" data-name="Tracé 10203" class="cls-4" d="M18.79,12.3h-.54v.55H17.7V12.3h-.54v-.54h.54v-.55h.54v.55h.55v.54m-2,0h-.54v.55h-.55V12.3h-.54v-.54h.54v-.55h.55v.55h.54v.54"/><path id="Tracé_10204" data-name="Tracé 10204" class="cls-4" d="M14.08,13.2a2.39,2.39,0,1,1,0-2.35l2.07-1.19a4.75,4.75,0,1,0-1.74,6.49,4.69,4.69,0,0,0,1.75-1.76L14.08,13.2"/></g></svg>